# AST/ASF file generated using VICON BodyLanguage
# -----------------------------------------------
:version 1.10
:name VICON
:units
  mass 1.0
  length 0.45
  angle deg
:documentation
   .ast/.asf automatically generated from VICON data using
   VICON BodyBuilder and BodyLanguage model FoxedUp or BRILLIANT.MOD
:root
   order TX TY TZ RX RY RZ
   axis XYZ
   position 0 0 0  
   orientation 0 0 0 
:bonedata
  begin
     id 1 
     name lhipjoint
     direction 0.623415 -0.642378 0.445763 
     length 2.49859 
     axis 0 0 0  XYZ
  end
  begin
     id 2 
     name lfemur
     direction 0.34202 -0.939693 0  
     length 6.69689  
     axis 0 0 20  XYZ
    dof rx ry rz
    limits (-160.0 20.0)
           (-70.0 70.0)
           (-60.0 70.0)
  end
  begin
     id 3 
     name ltibia
     direction 0.34202 -0.939693 0   
     length 7.37574   
     axis 0 0 20   XYZ
    dof rx
    limits (-10.0 170.0)
  end
  begin
     id 4 
     name lfoot
     direction 0.084323 -0.231675 0.969132   
     length 2.09111   
     axis -90 7.62852e-016 20   XYZ
    dof rx rz
    limits (-45.0 90.0)
           (-70.0 20.0)
  end
  begin
     id 5 
     name ltoes
     direction 1.5357e-011 -4.21957e-011 1   
     length 1.04989   
     axis -90 7.62852e-016 20   XYZ
    dof rx
    limits (-90.0 20.0)
  end
  begin
     id 6 
     name rhipjoint
     direction -0.605402 -0.653903 0.45376   
     length 2.45455  
     axis 0 0 0  XYZ 
  end
  begin
     id 7 
     name rfemur
     direction -0.34202 -0.939693 0   
     length 6.64523   
     axis 0 0 -20   XYZ
    dof rx ry rz
    limits (-160.0 20.0)
           (-70.0 70.0)
           (-70.0 60.0)
  end
  begin
     id 8 
     name rtibia
     direction -0.34202 -0.939693 0   
     length 7.3339   
     axis 0 0 -20   XYZ
    dof rx
    limits (-10.0 170.0)
 end
 begin
     id 9 
     name rfoot
     direction -0.120854 -0.332043 0.93549   
     length 2.23135  
     axis -90 -7.62852e-016 -20   XYZ
    dof rx rz
    limits (-45.0 90.0)
           (-20.0 70.0)
  end
  begin
     id 10 
     name rtoes
     direction -1.53563e-011 -4.21914e-011 1   
     length 1.10614   
     axis -90 -7.62852e-016 -20   XYZ
    dof rx
    limits (-90.0 20.0)
  end
  begin
     id 11 
     name lowerback
     direction 0.0319682 0.998615 -0.0417941   
     length 2.02718   
     axis 0 0 0   XYZ
    dof rx ry rz
    limits (-20.0 45.0)
           (-30.0 30.0)
           (-30.0 30.0)
  end
  begin
     id 12 
     name upperback
     direction 7.63181e-005 0.995808 0.0914691   
     length 1.97539   
     axis 0 0 0   XYZ
    dof rx ry rz
    limits (-20.0 45.0)
           (-30.0 30.0)
           (-30.0 30.0)
  end
  begin
     id 13 
     name thorax
     direction -0.016423 0.993627 0.111514   
     length 2.00349   
     axis 0 0 0   XYZ
    dof rx ry rz
    limits (-20.0 45.0)
           (-30.0 30.0)
           (-30.0 30.0)
  end
  begin
     id 14 
     name lowerneck
     direction -0.174763 0.981668 -0.0760716   
     length 1.71436   
     axis 0 0 0   XYZ
    dof rx ry rz
    limits (-20.0 45.0)
           (-30.0 30.0)
           (-30.0 30.0)
  end
  begin
     id 15 
     name upperneck
     direction 0.345458 0.934587 -0.0848868   
     length 1.72805   
     axis 0 0 0   XYZ
    dof rx ry rz
    limits (-20.0 45.0)
           (-30.0 30.0)
           (-30.0 30.0)
  end
  begin
     id 16
     name head
     direction 0.13001 0.989848 -0.0574291  
     length 1.767  
     axis 0 0 0   XYZ
    dof rx ry rz
    limits (-20.0 45.0)
           (-30.0 30.0)
           (-30.0 30.0)
  end
  begin
     id 17 
     name lclavicle
     direction 0.952951 0.290122 0.0878234  
     length 3.54654  
     axis 0 0 0   XYZ
    dof ry rz
    limits (-20.0 10.0)
           (0.0 20.0)
  end
  begin
     id 18 
     name lhumerus
     direction 1 -4.48957e-011 -4.56525e-028   
     length 5.19807   
     axis 180 -30 -90   XYZ
    dof rx ry rz
    limits (-60.0 90.0)
           (-90.0 90.0)
           (-90.0 90.0)
  end
  begin
     id 19
     name lradius
     direction 1 -4.48979e-011 -2.0317e-027   
     length 3.0937   
     axis 180 -30 -90   XYZ
    dof rx
    limits (-10.0 170.0)
  end
  begin
     id 20
     name lwrist
     direction 1 -4.48953e-011 -3.05809e-027   
     length 1.54685   
     axis 8.48514e-016 90 90   XYZ
    dof ry
    limits (-180.0 0.0)
 end
  begin
     id 21 
     name lhand
     direction 1 -4.48952e-011 -6.11639e-027   
     length 0.672632   
     axis 3.9013e-015 90 90   XYZ
    dof rx rz
    limits (-90.0 90.0)
           (-45.0 45.0)
  end
  begin
     id 22 
     name lfingers
     direction 1 -4.48925e-011 -1.22426e-026   
     length 0.542293   
     axis 7.80276e-015 90 90   XYZ
    dof rx
    limits (0.0 90.0)
  end
  begin
     id 23
     name lthumb
     direction 0.707107 -6.3486e-011 0.707107   
     length 0.778628   
     axis -90 45 5.37419e-014   XYZ
    dof rx rz
    limits (-45.0 45.0)
           (-45.0 45.0)
  end
  begin
     id 24 
     name rclavicle
     direction -0.960732 0.273675 -0.0457849   
     length 3.52079  
     axis 0 0 0   XYZ 
    dof ry rz
    limits (-10.0 20.0)
           (-20.0 0.0)
  end
  begin
     id 25 
     name rhumerus
     direction -1 -4.48976e-011 -1.63613e-027  
     length 5.45222   
     axis 180 30 90   XYZ
    dof rx ry rz
    limits (-90.0 60.0)
           (-90.0 90.0)
           (-90.0 90.0)
  end
  begin
     id 26 
     name rradius
     direction -1 -4.48957e-011 -7.00033e-028   
     length 3.01284   
     axis 180 30 90   XYZ
    dof rx
    limits (-10.0 170.0)
  end
  begin
     id 27 
     name rwrist
     direction -1 -4.48983e-011 -3.05543e-027   
     length 1.50642   
     axis 8.48514e-016 -90 -90   XYZ
    dof ry
    limits (-180.0 0.0)
  end
  begin
     id 28
     name rhand
     direction -1 -4.48984e-011 -6.11072e-027   
     length 0.622296   
     axis 3.9013e-015 -90 -90   XYZ
    dof rx rz
    limits (-90.0 90.0)
           (-45.0 45.0)
  end
  begin
     id 29
     name rfingers
     direction -1 -4.48865e-011 -1.22637e-026   
     length 0.501711   
     axis 7.80276e-015 -90 -90   XYZ
    dof rx
    limits (0.0 90.0)
  end
  begin
     id 30
     name rthumb
     direction -0.707107 -6.34932e-011 0.707107   
     length 0.72036   
     axis -90 -45 -5.37419e-014   XYZ
    dof rx rz
    limits (-45.0 45.0)
           (-45.0 45.0)
  end
:hierarchy
  begin
    root lhipjoint rhipjoint lowerback
    lhipjoint lfemur
    lfemur ltibia
    ltibia lfoot
    lfoot ltoes
    rhipjoint rfemur
    rfemur rtibia
    rtibia rfoot
    rfoot rtoes
    lowerback upperback
    upperback thorax
    thorax lowerneck lclavicle rclavicle
    lowerneck upperneck
    upperneck head
    lclavicle lhumerus
    lhumerus lradius
    lradius lwrist
    lwrist lhand lthumb
    lhand lfingers
    rclavicle rhumerus
    rhumerus rradius
    rradius rwrist
    rwrist rhand rthumb
    rhand rfingers
  end

#!OML:ASF H:\Not Pregnant\Project 1\Capture day 1\Session 1\non-pregnant.ASF
:FULLY-SPECIFIED
:DEGREES
336
root 6.4211 16.3956 7.28404 -167.062 19.2657 -182.813
lowerback -0.983968 2.46156 -2.23241
upperback -7.47807 3.69657 -0.889023
thorax -7.32411 2.15377 0.0859201
lowerneck 13.2066 -10.4115 -30.8029
upperneck 3.45925 -18.3086 34.9262
head 5.51166 -9.81388 17.0922
rclavicle 7.78428e-014 1.53064e-014
rhumerus -39.7801 -10.384 -80.5484
rradius 34.9998
rwrist 21.6549
rhand -7.27288 -1.52605
rfingers 7.12502
rthumb -161.392 149.344
lclavicle 7.78428e-014 1.53064e-014
lhumerus -39.4319 -8.02887 82.3411
lradius 52.2008
lwrist 41.6528
lhand -16.9408 -16.3614
lfingers 7.12502
lthumb 9.29243 13.4138
rfemur -31.1037 -0.825793 12.4534
rtibia 111.017
rfoot 11.6693 25.9529
rtoes -28.3918
lfemur -30.9687 5.60279 -28.3206
ltibia 25.1256
lfoot -10.0302 -4.28247
ltoes -36.6301
337
root 6.43026 16.401 7.21636 -167.283 18.937 -182.845
lowerback -0.684677 2.27332 -2.19199
upperback -7.34492 3.41162 -0.917771
thorax -7.34219 1.99745 0.0403908
lowerneck 13.1435 -10.3593 -30.775
upperneck 3.38151 -18.2118 34.9978
head 5.47025 -9.76411 17.1347
rclavicle -2.31708e-014 -7.35503e-015
rhumerus -39.3952 -10.2284 -81.1143
rradius 36.0014
rwrist 20.5721
rhand -8.75171 -1.51571
rfingers 7.12502
rthumb -162.815 149.224
lclavicle -2.31708e-014 -7.35503e-015
lhumerus -38.7993 -7.79504 81.7075
lradius 52.6138
lwrist 41.8317
lhand -16.9276 -16.5748
lfingers 7.12502
lthumb 9.30525 13.1998
rfemur -33.096 -1.79786 12.5652
rtibia 114.494
rfoot 10.8206 26.1249
rtoes -28.7351
lfemur -30.3388 5.93691 -28.4785
ltibia 24.8467
lfoot -10.4852 -4.75686
ltoes -36.0838
338
root 6.43953 16.4067 7.14742 -167.535 18.6063 -182.923
lowerback -0.387902 2.08588 -2.19413
upperback -7.20126 3.12587 -0.956613
thorax -7.3504 1.84303 0.0101275
lowerneck 13.0773 -10.3074 -30.7431
upperneck 3.31037 -18.1145 35.0426
head 5.42663 -9.71384 17.1623
rclavicle -7.01958e-015 1.11319e-014
rhumerus -39.0239 -10.0998 -81.6487
rradius 36.9631
rwrist 19.4338
rhand -10.2448 -1.50238
rfingers 7.12502
rthumb -164.252 149.118
lclavicle -7.01958e-015 1.11319e-014
lhumerus -38.1677 -7.50592 81.0886
lradius 52.9514
lwrist 42.0177
lhand -16.9175 -16.6699
lfingers 7.12502
lthumb 9.31492 13.1043
rfemur -35.0856 -2.85617 12.6271
rtibia 117.739
rfoot 9.6434 26.3126
rtoes -29.2826
lfemur -29.6573 6.26167 -28.6734
ltibia 24.5181
lfoot -10.9064 -5.25184
ltoes -35.5398
339
root 6.44935 16.4123 7.07707 -167.826 18.2815 -183.07
lowerback -0.0946197 1.90078 -2.26921
upperback -7.04751 2.84016 -1.00846
thorax -7.34961 1.69283 0.00888351
lowerneck 13.017 -10.2529 -30.7184
upperneck 3.24338 -18.0168 35.0709
head 5.38136 -9.6643 17.1834
rclavicle 3.78312e-015 -1.13307e-014
rhumerus -38.6753 -9.973 -82.1596
rradius 37.9069
rwrist 18.2668
rhand -11.6866 -1.52686
rfingers 7.12502
rthumb -165.641 148.99
lclavicle 3.78312e-015 -1.13307e-014
lhumerus -37.5445 -7.17312 80.497
lradius 53.2243
lwrist 42.2328
lhand -16.9363 -16.6331
lfingers 7.12502
lthumb 9.29681 13.1419
rfemur -37.0576 -4.00732 12.6092
rtibia 120.75
rfoot 8.17303 26.4612
rtoes -29.842
lfemur -28.9083 6.56962 -28.9232
ltibia 24.1155
lfoot -11.2789 -5.75457
ltoes -35.0332
340
root 6.45989 16.4177 7.00544 -168.15 17.9595 -183.281
lowerback 0.185808 1.72089 -2.40934
upperback -6.87773 2.55803 -1.07905
thorax -7.32656 1.54765 0.0266799
lowerneck 12.9541 -10.2022 -30.6919
upperneck 3.17929 -17.924 35.0914
head 5.33792 -9.61681 17.1988
rclavicle -7.57867e-016 -5.86415e-015
rhumerus -38.3318 -9.85782 -82.6485
rradius 38.8228
rwrist 17.1109
rhand -13.0261 -1.60153
rfingers 7.12502
rthumb -166.932 148.828
lclavicle -7.57867e-016 -5.86415e-015
lhumerus -36.9053 -6.82378 79.9331
lradius 53.4252
lwrist 42.5007
lhand -17.0016 -16.4795
lfingers 7.12502
lthumb 9.23377 13.2984
rfemur -38.9872 -5.2488 12.5178
rtibia 123.51
rfoot 6.44679 26.4985
rtoes -30.2397
lfemur -28.0954 6.85195 -29.2218
ltibia 23.6408
lfoot -11.5947 -6.25256
ltoes -34.5591
341
root 6.47089 16.4224 6.93318 -168.497 17.6352 -183.538
lowerback 0.461889 1.54356 -2.60646
upperback -6.70367 2.27747 -1.15451
thorax -7.29847 1.40694 0.0726556
lowerneck 12.8954 -10.1567 -30.6753
upperneck 3.12516 -17.8428 35.0962
head 5.29992 -9.57577 17.2063
rclavicle -3.06501e-014 6.16232e-015
rhumerus -38.01 -9.72332 -83.112
rradius 39.7295
rwrist 15.9807
rhand -14.2077 -1.77818
rfingers 7.12502
rthumb -168.071 148.582
lclavicle -3.06501e-014 6.16232e-015
lhumerus -36.2751 -6.44825 79.4172
lradius 53.5605
lwrist 42.8177
lhand -17.149 -16.2317
lfingers 7.12502
lthumb 9.09159 13.5524
rfemur -40.8737 -6.56408 12.3835
rtibia 126.005
rfoot 4.54428 26.3666
rtoes -30.4528
lfemur -27.2387 7.10802 -29.553
ltibia 23.1118
lfoot -11.8427 -6.75101
ltoes -34.0949
342
root 6.48241 16.4264 6.86044 -168.852 17.3042 -183.823
lowerback 0.731951 1.37178 -2.83988
upperback -6.52609 2.0033 -1.23456
thorax -7.26378 1.27177 0.135242
lowerneck 12.8485 -10.1159 -30.667
upperneck 3.06803 -17.7722 35.1011
head 5.26404 -9.54133 17.2143
rclavicle 3.58014e-014 1.39149e-014
rhumerus -37.711 -9.56222 -83.5541
rradius 40.6383
rwrist 14.8785
rhand -15.2116 -2.04345
rfingers 7.12502
rthumb -169.039 148.263
lclavicle 3.58014e-014 1.39149e-014
lhumerus -35.6412 -6.07169 78.9521
lradius 53.6289
lwrist 43.1941
lhand -17.3877 -15.8986
lfingers 7.12502
lthumb 8.86126 13.8954
rfemur -42.7144 -7.90897 12.2513
rtibia 128.221
rfoot 2.55883 26.0258
rtoes -30.4411
lfemur -26.3611 7.33711 -29.8989
ltibia 22.5546
lfoot -12.0201 -7.24822
ltoes -33.6139
343
root 6.49367 16.4295 6.78877 -169.204 16.9493 -184.111
lowerback 1.00622 1.20155 -3.08039
upperback -6.35279 1.7317 -1.30879
thorax -7.23562 1.13906 0.208669
lowerneck 12.8049 -10.0927 -30.6677
upperneck 3.02477 -17.732 35.0818
head 5.24074 -9.52261 17.206
rclavicle -3.37499e-014 -5.26779e-015
rhumerus -37.4508 -9.34708 -83.9737
rradius 41.5599
rwrist 13.7761
rhand -16.0517 -2.35196
rfingers 7.12502
rthumb -169.85 147.913
lclavicle -3.37499e-014 -5.26779e-015
lhumerus -35.0093 -5.69566 78.5508
lradius 53.622
lwrist 43.6235
lhand -17.707 -15.5192
lfingers 7.12502
lthumb 8.55313 14.2875
rfemur -44.4921 -9.23297 12.1713
rtibia 130.139
rfoot 0.526541 25.4123
rtoes -30.4129
lfemur -25.4881 7.53666 -30.2385
ltibia 21.9968
lfoot -12.1331 -7.74976
ltoes -33.1711
344
root 6.50424 16.4316 6.71774 -169.553 16.5621 -184.386
lowerback 1.28416 1.03324 -3.30132
upperback -6.18126 1.46397 -1.37617
thorax -7.21001 1.00764 0.279171
lowerneck 12.7716 -10.0846 -30.672
upperneck 2.98622 -17.7176 35.0423
head 5.22432 -9.51777 17.1835
rclavicle 4.2981e-014 -4.57205e-015
rhumerus -37.2129 -9.08705 -84.3677
rradius 42.4729
rwrist 12.6793
rhand -16.7125 -2.71559
rfingers 7.12502
rthumb -170.487 147.519
lclavicle 4.2981e-014 -4.57205e-015
lhumerus -34.3737 -5.33165 78.2146
lradius 53.5388
lwrist 44.1001
lhand -18.0963 -15.1081
lfingers 7.12502
lthumb 8.17738 14.7137
rfemur -46.2027 -10.4563 12.1922
rtibia 131.746
rfoot -1.4748 24.5221
rtoes -30.4706
lfemur -24.6264 7.72053 -30.5614
ltibia 21.4613
lfoot -12.1995 -8.26056
ltoes -32.7086
345
root 6.51465 16.4331 6.64622 -169.894 16.1562 -184.633
lowerback 1.58031 0.870331 -3.50192
upperback -6.02081 1.20461 -1.42947
thorax -7.20585 0.880349 0.352982
lowerneck 12.7613 -10.0796 -30.6942
upperneck 2.94628 -17.7156 35.0052
head 5.21048 -9.52158 17.1654
rclavicle -3.73304e-015 -9.83984e-015
rhumerus -37.0346 -8.75541 -84.7336
rradius 43.394
rwrist 11.5974
rhand -17.2314 -3.0539
rfingers 7.12502
rthumb -170.988 147.159
lclavicle -3.73304e-015 -9.83984e-015
lhumerus -33.7692 -4.9812 77.9475
lradius 53.4075
lwrist 44.6145
lhand -18.543 -14.6875
lfingers 7.12502
lthumb 7.74622 15.1506
rfemur -47.8549 -11.477 12.3616
rtibia 133.032
rfoot -3.34802 23.3512
rtoes -30.6128
lfemur -23.7787 7.89572 -30.8523
ltibia 20.9664
lfoot -12.2483 -8.75722
ltoes -32.2737
346
root 6.52388 16.4337 6.57438 -170.242 15.7286 -184.849
lowerback 1.91124 0.703682 -3.67126
upperback -5.86575 0.940214 -1.46207
thorax -7.22609 0.749673 0.432088
lowerneck 12.7404 -10.0905 -30.7253
upperneck 2.91751 -17.7386 34.9307
head 5.20686 -9.53767 17.1239
rclavicle -7.14285e-015 -6.26172e-015
rhumerus -36.9277 -8.3035 -85.081
rradius 44.3552
rwrist 10.5288
rhand -17.5959 -3.42117
rfingers 7.12502
rthumb -171.34 146.776
lclavicle -7.14285e-015 -6.26172e-015
lhumerus -33.1746 -4.63419 77.7442
lradius 53.1943
lwrist 45.1528
lhand -19.0458 -14.3217
lfingers 7.12502
lthumb 7.26092 15.5337
rfemur -49.4515 -12.2308 12.6949
rtibia 133.996
rfoot -5.03001 21.9142
rtoes -30.7393
lfemur -22.9355 8.05328 -31.107
ltibia 20.5231
lfoot -12.3021 -9.22212
ltoes -31.8443
347
root 6.53319 16.4334 6.50168 -170.586 15.2903 -185.027
lowerback 2.26589 0.546272 -3.81315
upperback -5.72086 0.688828 -1.47964
thorax -7.27021 0.625009 0.511642
lowerneck 12.7415 -10.0991 -30.7693
upperneck 2.89042 -17.7647 34.8667
head 5.20395 -9.55709 17.0921
rclavicle 1.19775e-014 -1.2921e-015
rhumerus -36.8759 -7.80576 -85.3884
rradius 45.2914
rwrist 9.54411
rhand -17.8313 -3.75161
rfingers 7.12502
rthumb -171.567 146.437
lclavicle 1.19775e-014 -1.2921e-015
lhumerus -32.6158 -4.31101 77.6043
lradius 52.9489
lwrist 45.706
lhand -19.5823 -13.9705
lfingers 7.12502
lthumb 6.74302 15.9022
rfemur -51.0042 -12.6596 13.2021
rtibia 134.643
rfoot -6.44975 20.2735
rtoes -30.8405
lfemur -22.1057 8.19774 -31.3158
ltibia 20.1389
lfoot -12.3833 -9.64433
ltoes -31.4366
348
root 6.54269 16.4322 6.42811 -170.929 14.8576 -185.17
lowerback 2.63857 0.401211 -3.92644
upperback -5.58065 0.4546 -1.48781
thorax -7.32929 0.507914 0.585086
lowerneck 12.7571 -10.1037 -30.8183
upperneck 2.86274 -17.7881 34.8148
head 5.19954 -9.57608 17.0695
rclavicle 2.35267e-014 1.51076e-014
rhumerus -36.86 -7.28304 -85.6603
rradius 46.1821
rwrist 8.67889
rhand -17.9482 -4.01786
rfingers 7.12502
rthumb -171.68 146.166
lclavicle 2.35267e-014 1.51076e-014
lhumerus -32.085 -4.01415 77.5164
lradius 52.6715
lwrist 46.2571
lhand -20.1429 -13.6597
lfingers 7.12502
lthumb 6.20184 16.2295
rfemur -52.5084 -12.7322 13.8528
rtibia 134.978
rfoot -7.59554 18.5114
rtoes -30.7799
lfemur -21.2918 8.30685 -31.4748
ltibia 19.8202
lfoot -12.5036 -9.9822
ltoes -31.1028
349
root 6.55299 16.4298 6.35393 -171.264 14.4248 -185.279
lowerback 3.022 0.26918 -4.0241
upperback -5.44791 0.238602 -1.48397
thorax -7.40261 0.399942 0.662342
lowerneck 12.791 -10.1042 -30.8701
upperneck 2.83242 -17.8083 34.7794
head 5.19261 -9.5945 17.0583
rclavicle -1.36979e-014 5.66536e-015
rhumerus -36.8651 -6.76838 -85.8812
rradius 46.9922
rwrist 7.97711
rhand -17.9479 -4.20017
rfingers 7.12502
rthumb -171.679 145.984
lclavicle -1.36979e-014 5.66536e-015
lhumerus -31.5933 -3.74875 77.4864
lradius 52.3787
lwrist 46.7813
lhand -20.7173 -13.3872
lfingers 7.12502
lthumb 5.64731 16.5175
rfemur -53.9652 -12.4792 14.6111
rtibia 135.015
rfoot -8.50127 16.6821
rtoes -30.5973
lfemur -20.5062 8.35914 -31.5817
ltibia 19.5724
lfoot -12.6642 -10.2291
ltoes -30.8704
350
root 6.56431 16.4261 6.27923 -171.589 13.9886 -185.36
lowerback 3.39938 0.149881 -4.10781
upperback -5.31407 0.0411511 -1.47232
thorax -7.47127 0.300716 0.740072
lowerneck 12.8408 -10.1023 -30.9198
upperneck 2.79343 -17.8258 34.765
head 5.18221 -9.61245 17.0593
rclavicle -4.9544e-014 1.85864e-014
rhumerus -36.8489 -6.29176 -86.0541
rradius 47.681
rwrist 7.46551
rhand -17.849 -4.26814
rfingers 7.12502
rthumb -171.584 145.92
lclavicle -4.9544e-014 1.85864e-014
lhumerus -31.1221 -3.51674 77.5095
lradius 52.0634
lwrist 47.2585
lhand -21.285 -13.1514
lfingers 7.12502
lthumb 5.09914 16.7673
rfemur -55.3501 -11.9492 15.417
rtibia 134.76
rfoot -9.21282 14.8584
rtoes -30.2404
lfemur -19.75 8.3274 -31.6382
ltibia 19.3946
lfoot -12.8533 -10.3621
ltoes -30.8055
